<svg xmlns="http://www.w3.org/2000/svg" viewBox="0 0 200 40" style="enable-background:new 0 0 200 40" xml:space="preserve">
  <defs>
    <!-- Primary gradient -->
    <linearGradient id="headerPrimary" x1="0%" y1="0%" x2="100%" y2="100%">
      <stop offset="0%" style="stop-color:#ffffff"/>
      <stop offset="100%" style="stop-color:#e5e7eb"/>
    </linearGradient>
    
    <!-- Blue accent -->
    <linearGradient id="headerBlue" x1="0%" y1="0%" x2="100%" y2="100%">
      <stop offset="0%" style="stop-color:#3b82f6"/>
      <stop offset="100%" style="stop-color:#2563eb"/>
    </linearGradient>
  </defs>
  
  <!-- T Logo Symbol -->
  <g transform="translate(5,5)">
    <!-- Main T shape -->
    <rect x="5" y="8" width="20" height="3" rx="1.5" fill="url(#headerPrimary)"/>
    <rect x="13" y="8" width="3" height="18" rx="1.5" fill="url(#headerPrimary)"/>
    
    <!-- Small accent dots -->
    <circle cx="28" cy="12" r="1.5" fill="url(#headerBlue)" opacity="0.7"/>
    <rect x="2" y="22" width="4" height="2" rx="1" fill="url(#headerBlue)" opacity="0.5"/>
    <rect x="23" y="22" width="4" height="2" rx="1" fill="url(#headerBlue)" opacity="0.3"/>
  </g>
  
  <!-- Text: TULIO -->
  <g transform="translate(45,8)" fill="url(#headerPrimary)">
    <!-- T -->
    <rect x="0" y="2" width="12" height="2" rx="1"/>
    <rect x="5" y="2" width="2" height="20" rx="1"/>
    
    <!-- U -->
    <rect x="18" y="2" width="2" height="18" rx="1"/>
    <rect x="26" y="2" width="2" height="18" rx="1"/>
    <rect x="18" y="18" width="10" height="2" rx="1"/>
    
    <!-- L -->
    <rect x="34" y="2" width="2" height="20" rx="1"/>
    <rect x="34" y="18" width="8" height="2" rx="1"/>
    
    <!-- I -->
    <rect x="48" y="2" width="6" height="2" rx="1"/>
    <rect x="50" y="2" width="2" height="20" rx="1"/>
    <rect x="48" y="18" width="6" height="2" rx="1"/>
    
    <!-- O -->
    <rect x="60" y="2" width="2" height="18" rx="1"/>
    <rect x="68" y="2" width="2" height="18" rx="1"/>
    <rect x="60" y="2" width="10" height="2" rx="1"/>
    <rect x="60" y="18" width="10" height="2" rx="1"/>
  </g>
  
  <!-- Subtitle: Control Panel -->
  <g transform="translate(45,28)" fill="url(#headerPrimary)" opacity="0.7">
    <!-- Smaller text using simplified shapes -->
    <rect x="0" y="0" width="8" height="1" rx="0.5"/>  <!-- CONTROL -->
    <rect x="10" y="0" width="6" height="1" rx="0.5"/>
    <rect x="18" y="0" width="6" height="1" rx="0.5"/>
    <rect x="26" y="0" width="6" height="1" rx="0.5"/>
    <rect x="34" y="0" width="6" height="1" rx="0.5"/>
    <rect x="42" y="0" width="6" height="1" rx="0.5"/>
    <rect x="50" y="0" width="6" height="1" rx="0.5"/>
    
    <rect x="60" y="0" width="6" height="1" rx="0.5"/>  <!-- PANEL -->
    <rect x="68" y="0" width="5" height="1" rx="0.5"/>
    <rect x="75" y="0" width="5" height="1" rx="0.5"/>
    <rect x="82" y="0" width="5" height="1" rx="0.5"/>
    <rect x="89" y="0" width="5" height="1" rx="0.5"/>
  </g>
</svg>
